<svg xmlns="http://www.w3.org/2000/svg" viewBox="0 0 512 512">
  <defs>
    <linearGradient id="bg" x1="0" y1="0" x2="1" y2="1">
      <stop offset="0%" stop-color="#0f2942"/>
      <stop offset="100%" stop-color="#134e4a"/>
    </linearGradient>
    <linearGradient id="water" x1="0" y1="0" x2="1" y2="0">
      <stop offset="0%" stop-color="#5eead4" stop-opacity="0.5"/>
      <stop offset="100%" stop-color="#2dd4bf" stop-opacity="0.3"/>
    </linearGradient>
  </defs>
  <rect width="512" height="512" rx="96" fill="url(#bg)"/>
  <path d="M0 340 Q64 320 128 340 T256 340 T384 340 T512 340 L512 512 Q448 512 384 512 L128 512 Q40 512 0 460 Z" fill="url(#water)"/>
  <path d="M0 370 Q64 350 128 370 T256 370 T384 370 T512 370 L512 512 Q448 512 384 512 L128 512 Q40 512 0 460 Z" fill="#2dd4bf" opacity="0.2"/>
  <path d="M100 300 Q120 280 256 275 Q392 280 412 300 Q400 310 256 305 Q112 310 100 300Z" fill="#ffffff" opacity="0.9"/>
  <circle cx="256" cy="255" r="22" fill="#ffffff"/>
  <path d="M244 275 Q246 295 256 298 Q266 295 268 275" fill="#ffffff" opacity="0.9"/>
  <line x1="230" y1="270" x2="120" y2="220" stroke="#ffffff" stroke-width="6" stroke-linecap="round"/>
  <ellipse cx="112" cy="216" rx="20" ry="8" transform="rotate(-25 112 216)" fill="#ffffff" opacity="0.85"/>
  <line x1="282" y1="270" x2="392" y2="220" stroke="#ffffff" stroke-width="6" stroke-linecap="round"/>
  <ellipse cx="400" cy="216" rx="20" ry="8" transform="rotate(25 400 216)" fill="#ffffff" opacity="0.85"/>
  <rect x="176" y="140" width="160" height="4" rx="2" fill="#5eead4" opacity="0.6"/>
</svg>
